<svg width="38" height="37" viewBox="0 0 38 37" fill="none" xmlns="http://www.w3.org/2000/svg">
<path d="M33.85 36.7187H4.15C2.125 36.7187 0.4375 35.0625 0.4375 33.075V6.32655C0.4375 4.33905 1.7875 2.6828 3.55938 2.6828H5.41563V5.08436H3.55938C3.30625 5.08436 2.96875 5.58123 2.96875 6.32655V33.075C2.96875 33.7375 3.55938 34.3172 4.23438 34.3172H33.9344C34.6094 34.3172 35.2 33.7375 35.2 33.075V6.32655C35.2 5.58123 34.7781 5.08436 34.6094 5.08436H32.7531V2.6828H34.6094C36.2969 2.6828 37.7313 4.33905 37.7313 6.32655V33.075C37.5625 35.0625 35.875 36.7187 33.85 36.7187Z" fill="white"/>
<path d="M9.12811 7.56873C8.45311 7.56873 7.86249 6.98905 7.86249 6.32655V1.44061C7.86249 0.778113 8.45311 0.198425 9.12811 0.198425C9.80311 0.198425 10.3937 0.778113 10.3937 1.44061V6.32655C10.3094 6.98905 9.80311 7.56873 9.12811 7.56873Z" fill="white"/>
<path d="M28.8719 7.56873C28.1969 7.56873 27.6063 6.98905 27.6063 6.32655V1.44061C27.6063 0.778113 28.1969 0.198425 28.8719 0.198425C29.5469 0.198425 30.1375 0.778113 30.1375 1.44061V6.32655C30.1375 6.98905 29.5469 7.56873 28.8719 7.56873Z" fill="white"/>
<path d="M12.8406 2.6828H25.1594V5.16718H12.8406V2.6828Z" fill="white"/>
<path d="M2.88437 9.97031H35.1156V12.4547H2.88437V9.97031Z" fill="white"/>
<path d="M30.1375 14.8563H32.5844V17.2578H30.1375V14.8563Z" fill="white"/>
<path d="M25.1594 14.8563H27.6906V17.2578H25.1594V14.8563Z" fill="white"/>
<path d="M20.2656 14.8563H22.7125V17.2578H20.2656V14.8563Z" fill="white"/>
<path d="M15.2875 14.8563H17.7344V17.2578H15.2875V14.8563Z" fill="white"/>
<path d="M10.3094 14.8563H12.8406V17.2578H10.3094V14.8563Z" fill="white"/>
<path d="M30.1375 19.7422H32.5844V22.1437H30.1375V19.7422Z" fill="white"/>
<path d="M25.1594 19.7422H27.6906V22.1437H25.1594V19.7422Z" fill="white"/>
<path d="M20.2656 19.7422H22.7125V22.1437H20.2656V19.7422Z" fill="white"/>
<path d="M15.2875 19.7422H17.7344V22.1437H15.2875V19.7422Z" fill="white"/>
<path d="M10.3094 19.7422H12.8406V22.1437H10.3094V19.7422Z" fill="white"/>
<path d="M5.41562 19.7422H7.86249V22.1437H5.41562V19.7422Z" fill="white"/>
<path d="M30.1375 24.5453H32.5844V27.0297H30.1375V24.5453Z" fill="white"/>
<path d="M25.1594 24.5453H27.6906V27.0297H25.1594V24.5453Z" fill="white"/>
<path d="M20.2656 24.5453H22.7125V27.0297H20.2656V24.5453Z" fill="white"/>
<path d="M15.2875 24.5453H17.7344V27.0297H15.2875V24.5453Z" fill="white"/>
<path d="M10.3094 24.5453H12.8406V27.0297H10.3094V24.5453Z" fill="white"/>
<path d="M5.41562 24.5453H7.86249V27.0297H5.41562V24.5453Z" fill="white"/>
<path d="M25.1594 29.4312H27.6906V31.8328H25.1594V29.4312Z" fill="white"/>
<path d="M20.2656 29.4312H22.7125V31.8328H20.2656V29.4312Z" fill="white"/>
<path d="M15.2875 29.4312H17.7344V31.8328H15.2875V29.4312Z" fill="white"/>
<path d="M10.3094 29.4312H12.8406V31.8328H10.3094V29.4312Z" fill="white"/>
<path d="M5.41562 29.4312H7.86249V31.8328H5.41562V29.4312Z" fill="white"/>
</svg>
