<svg width="50" height="50" viewBox="0 0 50 50" fill="none" xmlns="http://www.w3.org/2000/svg">
<path d="M25 50C38.8071 50 50 38.8071 50 25C50 11.1929 38.8071 0 25 0C11.1929 0 0 11.1929 0 25C0 38.8071 11.1929 50 25 50Z" fill="#37C7E0"/>
<path d="M39.8594 11H20.3281C20.0937 11 19.9375 11.1562 19.9375 11.3906V16.0781C19.9375 16.3125 20.0937 16.4688 20.3281 16.4688H39.8594C40.0938 16.4688 40.25 16.3125 40.25 16.0781V11.3906C40.25 11.1562 40.0938 11 39.8594 11Z" fill="white"/>
<path d="M39.8594 21.9375H20.3281C20.0937 21.9375 19.9375 22.0937 19.9375 22.3281V27.0156C19.9375 27.25 20.0937 27.4062 20.3281 27.4062H39.8594C40.0938 27.4062 40.25 27.25 40.25 27.0156V22.3281C40.25 22.0937 40.0938 21.9375 39.8594 21.9375Z" fill="white"/>
<path d="M39.8594 32.875H20.3281C20.0937 32.875 19.9375 33.0312 19.9375 33.2656V37.9531C19.9375 38.1875 20.0937 38.3438 20.3281 38.3438H39.8594C40.0938 38.3438 40.25 38.1875 40.25 37.9531V33.2656C40.25 33.0312 40.0938 32.875 39.8594 32.875Z" fill="white"/>
<path d="M14.0781 11H9.39062C9.15625 11 9 11.1562 9 11.3906V16.0781C9 16.3125 9.15625 16.4688 9.39062 16.4688H14.0781C14.3125 16.4688 14.4688 16.3125 14.4688 16.0781V11.3906C14.4688 11.1562 14.3125 11 14.0781 11Z" fill="white"/>
<path d="M14.0781 21.9375H9.39062C9.15625 21.9375 9 22.0937 9 22.3281V27.0156C9 27.25 9.15625 27.4062 9.39062 27.4062H14.0781C14.3125 27.4062 14.4688 27.25 14.4688 27.0156V22.3281C14.4688 22.0937 14.3125 21.9375 14.0781 21.9375Z" fill="white"/>
<path d="M14.0781 32.875H9.39062C9.15625 32.875 9 33.0312 9 33.2656V37.9531C9 38.1875 9.15625 38.3438 9.39062 38.3438H14.0781C14.3125 38.3438 14.4688 38.1875 14.4688 37.9531V33.2656C14.4688 33.0312 14.3125 32.875 14.0781 32.875Z" fill="white"/>
</svg>
