<svg width="64" height="64" viewBox="0 0 64 64" fill="none" xmlns="http://www.w3.org/2000/svg">
<path d="M49.6 54H14.4C12 54 10 52 10 49.6V17.3C10 14.9 11.6 12.9 13.7 12.9H15.9V15.8H13.7C13.4 15.8 13 16.4 13 17.3V49.6C13 50.4 13.7 51.1 14.5 51.1H49.7C50.5 51.1 51.2 50.4 51.2 49.6V17.3C51.2 16.4 50.7 15.8 50.5 15.8H48.3V12.9H50.5C52.5 12.9 54.2 14.9 54.2 17.3V49.6C54 52 52 54 49.6 54Z" fill="white"/>
<path d="M20.3 18.8C19.5 18.8 18.8 18.1 18.8 17.3V11.4C18.8 10.6 19.5 9.89999 20.3 9.89999C21.1 9.89999 21.8 10.6 21.8 11.4V17.3C21.7 18.1 21.1 18.8 20.3 18.8Z" fill="white"/>
<path d="M43.7 18.8C42.9 18.8 42.2 18.1 42.2 17.3V11.4C42.2 10.6 42.9 9.89999 43.7 9.89999C44.5 9.89999 45.2 10.6 45.2 11.4V17.3C45.2 18.1 44.5 18.8 43.7 18.8Z" fill="white"/>
<path d="M24.7 12.9H39.3V15.9H24.7V12.9Z" fill="white"/>
<path d="M12.9 21.7H51.1V24.7H12.9V21.7Z" fill="white"/>
<path d="M45.2 27.6H48.1V30.5H45.2V27.6Z" fill="white"/>
<path d="M39.3 27.6H42.3V30.5H39.3V27.6Z" fill="white"/>
<path d="M33.5 27.6H36.4V30.5H33.5V27.6Z" fill="white"/>
<path d="M27.6 27.6H30.5V30.5H27.6V27.6Z" fill="white"/>
<path d="M21.7 27.6H24.7V30.5H21.7V27.6Z" fill="white"/>
<path d="M45.2 33.5H48.1V36.4H45.2V33.5Z" fill="white"/>
<path d="M39.3 33.5H42.3V36.4H39.3V33.5Z" fill="white"/>
<path d="M33.5 33.5H36.4V36.4H33.5V33.5Z" fill="white"/>
<path d="M27.6 33.5H30.5V36.4H27.6V33.5Z" fill="white"/>
<path d="M21.7 33.5H24.7V36.4H21.7V33.5Z" fill="white"/>
<path d="M15.9 33.5H18.8V36.4H15.9V33.5Z" fill="white"/>
<path d="M45.2 39.3H48.1V42.3H45.2V39.3Z" fill="white"/>
<path d="M39.3 39.3H42.3V42.3H39.3V39.3Z" fill="white"/>
<path d="M33.5 39.3H36.4V42.3H33.5V39.3Z" fill="white"/>
<path d="M27.6 39.3H30.5V42.3H27.6V39.3Z" fill="white"/>
<path d="M21.7 39.3H24.7V42.3H21.7V39.3Z" fill="white"/>
<path d="M15.9 39.3H18.8V42.3H15.9V39.3Z" fill="white"/>
<path d="M39.3 45.2H42.3V48.1H39.3V45.2Z" fill="white"/>
<path d="M33.5 45.2H36.4V48.1H33.5V45.2Z" fill="white"/>
<path d="M27.6 45.2H30.5V48.1H27.6V45.2Z" fill="white"/>
<path d="M21.7 45.2H24.7V48.1H21.7V45.2Z" fill="white"/>
<path d="M15.9 45.2H18.8V48.1H15.9V45.2Z" fill="white"/>
</svg>
